<svg width="122" height="122" viewBox="0 0 122 122" fill="none" xmlns="http://www.w3.org/2000/svg">
<path d="M61 121C94.1371 121 121 94.1371 121 61C121 27.8629 94.1371 1 61 1C27.8629 1 1 27.8629 1 61C1 94.1371 27.8629 121 61 121Z" stroke="white" stroke-width="2" stroke-miterlimit="10"/>
<path d="M82.0911 52.1963V18.8653C82.0911 18.6358 82 18.4157 81.8377 18.2534C81.6754 18.0912 81.4553 18 81.2258 18H39.5967C39.3672 18 39.1472 18.0912 38.985 18.2534C38.8227 18.4157 38.7314 18.6358 38.7314 18.8653V52.1963C38.7296 56.3764 39.9389 60.4676 42.2132 63.9749C44.4875 67.4823 47.7293 70.2556 51.5464 71.9595C52.9512 72.5585 54.1515 73.553 55.0011 74.822C55.8506 76.0911 56.3129 77.5797 56.3315 79.1068V81.469C56.3315 84.2068 55.2439 86.8325 53.308 88.7684C51.372 90.7043 48.7464 91.7919 46.0086 91.7919C44.7074 91.7919 43.4595 92.3088 42.5394 93.2289C41.6193 94.149 41.1023 95.3969 41.1023 96.6981V99.5709H79.6857V96.6981C79.6857 95.3969 79.1687 94.149 78.2486 93.2289C77.3286 92.3088 76.0807 91.7919 74.7795 91.7919C72.0417 91.7919 69.416 90.7043 67.4801 88.7684C65.5441 86.8325 64.4565 84.2068 64.4565 81.469V79.1068C64.4744 77.5807 64.9354 76.0927 65.7834 74.8238C66.6314 73.5549 67.8298 72.5598 69.2329 71.9595C73.0582 70.2621 76.309 67.4915 78.5913 63.9836C80.8736 60.4758 82.0892 56.3812 82.0911 52.1963Z" stroke="white" stroke-width="2" stroke-miterlimit="10"/>
<path d="M49.7617 64.4912C50.2636 65.0536 50.7914 65.5988 51.3452 66.1093" stroke="white" stroke-width="2" stroke-miterlimit="10"/>
<path d="M44.6563 22.4131V50.9677C44.656 55.1249 45.9337 59.1818 48.3164 62.5885" stroke="white" stroke-width="2" stroke-miterlimit="10"/>
<path d="M39.5967 99.5713H80.9489C81.7039 99.5713 82.428 99.8712 82.9619 100.405C83.4958 100.939 83.7957 101.663 83.7957 102.418V105.403C83.7957 105.562 83.7328 105.714 83.6208 105.826C83.5089 105.937 83.357 106 83.1986 106H37.3383C37.1799 106 37.028 105.937 36.9161 105.826C36.8041 105.714 36.7412 105.562 36.7412 105.403V102.418C36.7412 101.663 37.0411 100.939 37.575 100.405C38.1089 99.8712 38.833 99.5713 39.588 99.5713H39.5967Z" stroke="white" stroke-width="2" stroke-miterlimit="10"/>
<path d="M82.4379 33.2461H94.4135C94.5241 33.2457 94.6337 33.2683 94.735 33.3126C94.8364 33.3569 94.9275 33.4218 95.0024 33.5032C95.0773 33.5846 95.1344 33.6807 95.1701 33.7855C95.2058 33.8902 95.2192 34.0012 95.2096 34.1114C94.8202 37.7456 92.6137 51.5556 82.0918 56.2368" stroke="white" stroke-width="2" stroke-miterlimit="10"/>
<path d="M38.7747 33.2463H26.7991C26.6885 33.2459 26.579 33.2685 26.4776 33.3128C26.3762 33.357 26.2852 33.4219 26.2103 33.5034C26.1354 33.5848 26.0782 33.6809 26.0425 33.7856C26.0068 33.8904 25.9934 34.0014 26.003 34.1116C26.3924 37.7458 28.5989 51.5558 39.1208 56.237" stroke="white" stroke-width="2" stroke-miterlimit="10"/>
</svg>
