<svg width="140" height="140" viewBox="0 0 140 140" fill="none" xmlns="http://www.w3.org/2000/svg">
<rect width="140" height="140" fill="#3B3B48"/>
<path d="M70 130C103.137 130 130 103.137 130 70C130 36.8629 103.137 10 70 10C36.8629 10 10 36.8629 10 70C10 103.137 36.8629 130 70 130Z" fill="#3B3B48" stroke="white" stroke-width="2" stroke-miterlimit="10"/>
<path d="M94.7499 69.8398H44.9199V101.68H94.7499V69.8398Z" fill="#3B3B48" stroke="white" stroke-width="2" stroke-linecap="round" stroke-linejoin="round"/>
<path d="M101.68 53.23H38V69.84H101.68V53.23Z" fill="#3B3B48" stroke="white" stroke-width="2" stroke-linecap="round" stroke-linejoin="round"/>
<path d="M64.2998 53.23V101.68" stroke="white" stroke-width="2" stroke-linecap="round" stroke-linejoin="round"/>
<path d="M75.3799 53.23V101.68" stroke="white" stroke-width="2" stroke-linecap="round" stroke-linejoin="round"/>
<path d="M69.8398 53.23C61.5298 53.23 51.8398 51.85 51.8398 44.93C51.8398 39.39 54.6098 38 58.7598 38C64.2998 38 69.8398 47.69 69.8398 53.23Z" fill="#3B3B48" stroke="white" stroke-width="2" stroke-linecap="round" stroke-linejoin="round"/>
<path d="M69.8398 53.23C78.1398 53.23 87.8398 51.85 87.8398 44.93C87.8398 39.39 85.0798 38 80.9198 38C75.3798 38 69.8398 47.69 69.8398 53.23Z" fill="#3B3B48" stroke="white" stroke-width="2" stroke-linecap="round" stroke-linejoin="round"/>
</svg>
