<svg width="70" height="83" viewBox="0 0 70 83" fill="none" xmlns="http://www.w3.org/2000/svg">
<path d="M34.626 57.0402L35.2024 57.4385L35.7736 57.0328L49.1964 47.4976C51.9264 49.0012 54.2936 50.2467 56.3429 51.3144C56.7972 51.5511 57.2352 51.7787 57.6575 51.9982C59.2727 52.8376 60.6594 53.5582 61.8602 54.2164C64.9178 55.8922 66.5722 57.0648 67.5412 58.5004C68.4925 59.9099 68.8703 61.7084 68.9698 64.8938C69.0256 66.6795 68.9948 68.8071 68.9566 71.4516C68.929 73.3575 68.8975 75.5318 68.8918 78.0401C46.5593 82.9045 23.4407 82.9045 1.10824 78.0401C1.10255 75.49 1.07097 73.2827 1.04334 71.3511C1.00513 68.6809 0.974467 66.5376 1.03018 64.7445C1.12973 61.5404 1.50824 59.7575 2.45533 58.373C3.42142 56.9607 5.07128 55.8208 8.13367 54.17C9.20501 53.5925 10.4564 52.9486 11.8938 52.2089C14.3245 50.9581 17.2872 49.4334 20.8114 47.4932L34.626 57.0402Z" stroke="white" stroke-width="2"/>
<path d="M35.1832 1.00447L35.2001 1.00465L35.2171 1.00426C37.3068 0.955698 39.3854 1.32304 41.3317 2.08488C43.2781 2.84672 45.0534 3.98783 46.5544 5.44184C48.0554 6.89583 49.2522 8.63377 50.0751 10.5543C50.8974 12.4736 51.3299 14.5371 51.3475 16.6248C51.3466 20.8584 49.8771 26.6911 47.0616 31.446C44.2375 36.2152 40.2165 39.6613 35.1939 39.6613C30.18 39.6613 26.1485 36.1382 23.3098 31.3156C20.4835 26.5141 19.0077 20.6843 19.0049 16.6322C19.1039 12.4265 20.8555 8.42858 23.8811 5.50373C26.9096 2.57621 30.9703 0.959596 35.1832 1.00447Z" stroke="white" stroke-width="2"/>
</svg>
