<svg width="56" height="90" viewBox="0 0 56 90" fill="none" xmlns="http://www.w3.org/2000/svg">
<path d="M54.5554 43.9016L54.5557 43.9033C55.5342 48.9488 52.8484 54.3424 47.1261 58.2302L46.2592 58.8193L46.8883 59.6576C47.2657 60.1606 47.465 60.7749 47.4547 61.4037L47.4546 61.4119V61.4201C47.4546 62.8031 46.666 63.6616 45.903 63.8041L45.0866 63.9566V64.7871V88.8108C45.0866 88.861 45.0666 88.9091 45.0311 88.9446C44.9956 88.9802 44.9475 89.0001 44.8973 89.0001H10.8571C10.8069 89.0001 10.7587 88.9801 10.7233 88.9447C10.6878 88.9092 10.6678 88.861 10.6678 88.8108V64.7977V63.9672L9.85142 63.8147C9.0884 63.6722 8.29981 62.8136 8.29981 61.4307H8.2999L8.29972 61.4171C8.29104 60.78 8.49987 60.159 8.89174 59.6566L9.55 58.8126L8.66337 58.2131C2.9409 54.3438 0.271187 48.9715 1.23089 43.9005C1.87632 40.544 3.71411 38.4414 5.86592 36.008L5.86612 36.0078L6.0535 35.7957C7.68555 34.0947 9.46086 32.5371 11.3598 31.1402L11.3722 31.1311L11.3844 31.1215C16.7827 26.8876 23.7501 21.4075 26.018 10.4516L26.1614 9.75866L25.5557 9.39286C24.7217 8.88922 24.0731 8.12922 23.7068 7.22644C23.3405 6.32365 23.2761 5.32656 23.5234 4.3842C23.7707 3.44184 24.3163 2.60479 25.0786 1.99816C25.841 1.39154 26.7792 1.04792 27.753 1.01864C28.7269 0.989366 29.684 1.27602 30.4815 1.83575C31.2789 2.39548 31.8738 3.19824 32.1772 4.12405C32.4806 5.04986 32.4763 6.04901 32.1649 6.97216C31.8535 7.89533 31.2517 8.69292 30.4495 9.24575L30.4356 9.25529L30.4221 9.26529C30.3872 9.29113 30.3509 9.31504 30.3133 9.3369L30.2792 9.35669L30.2469 9.3791L30.1781 9.42667L29.6348 9.80283L29.7678 10.4502C32.0195 21.4075 38.9879 26.8879 44.4028 31.1224L44.4147 31.1317L44.4269 31.1407C46.3266 32.5359 48.1018 34.0934 49.7323 35.7955L49.9199 36.0077L49.9202 36.008C52.0722 38.4417 53.9102 40.5445 54.5554 43.9016Z" stroke="white" stroke-width="2"/>
<path d="M8.19336 59.2002H47.5721" stroke="white" stroke-width="2"/>
<path d="M10.043 64.4863L45.4574 64.4863" stroke="white" stroke-width="2"/>
<mask id="mask0_0_231" style="mask-type:alpha" maskUnits="userSpaceOnUse" x="0" y="0" width="56" height="90">
<path d="M54.555 43.9016L54.5553 43.9032C55.5338 48.9488 52.848 54.3423 47.1257 58.2302L46.2588 58.8192L46.8879 59.6575C47.2653 60.1605 47.4646 60.7749 47.4543 61.4037L47.4541 61.4119V61.4201C47.4541 62.803 46.6656 63.6616 45.9026 63.8041L45.0861 63.9566V64.7871V88.8107C45.0861 88.8609 45.0662 88.9091 45.0307 88.9446C44.9952 88.9801 44.9471 89 44.8969 89H10.8567C10.8065 89 10.7583 88.9801 10.7229 88.9446C10.6874 88.9091 10.6674 88.861 10.6674 88.8107V64.7976V63.9671L9.85102 63.8146C9.088 63.6721 8.29941 62.8136 8.29941 61.4306H8.2995L8.29931 61.417C8.29064 60.7799 8.49947 60.1589 8.89134 59.6565L9.5496 58.8126L8.66296 58.2131C2.9405 54.3438 0.270783 48.9715 1.23048 43.9004C1.87592 40.5439 3.71371 38.4413 5.86552 36.0079L5.86572 36.0077L6.0531 35.7957C7.68515 34.0946 9.46045 32.537 11.3594 31.1402L11.3718 31.131L11.384 31.1215C16.7823 26.8875 23.7497 21.4075 26.0176 10.4515L26.161 9.7586L25.5553 9.3928C24.7213 8.88916 24.0727 8.12916 23.7064 7.22638C23.3401 6.32359 23.2757 5.3265 23.523 4.38414C23.7703 3.44178 24.3159 2.60473 25.0782 1.9981C25.8406 1.39148 26.7788 1.04785 27.7526 1.01858C28.7265 0.989305 29.6836 1.27595 30.4811 1.83569C31.2785 2.39542 31.8734 3.19818 32.1768 4.12399C32.4802 5.0498 32.4759 6.04895 32.1645 6.9721C31.8531 7.89526 31.2513 8.69286 30.4491 9.24569L30.4352 9.25523L30.4217 9.26523C30.3868 9.29107 30.3505 9.31498 30.3129 9.33684L30.2788 9.35663L30.2465 9.37904L30.1777 9.42661L29.6344 9.80277L29.7674 10.4501C32.0191 21.4074 38.9875 26.8878 44.4024 31.1224L44.4143 31.1317L44.4265 31.1406C46.3262 32.5359 48.1014 34.0933 49.7319 35.7954L49.9195 36.0077L49.9198 36.0079C52.0718 38.4416 53.9098 40.5444 54.555 43.9016Z" fill="#D65F5F" stroke="black" stroke-width="2"/>
<path d="M8.19289 59.2003H47.5716" stroke="#3B3B48" stroke-width="2"/>
<path d="M10.0429 64.486L45.4573 64.486" stroke="#3B3B48" stroke-width="2"/>
</mask>
<g mask="url(#mask0_0_231)">
<path d="M2.64355 52.0632L8.98644 45.4561L15.3293 52.0632L21.6722 45.4561L28.0151 52.0632L34.358 45.4561L40.7009 52.0632L47.0437 45.4561L53.3866 52.0632L59.4652 45.4561" stroke="white" stroke-width="2"/>
<path d="M2.64355 38.8492L8.98644 32.242L15.3293 38.8492L21.6722 32.242L28.0151 38.8492L34.358 32.242L40.7009 38.8492L47.0437 32.242L53.3866 38.8492L59.4652 32.242" stroke="white" stroke-width="2"/>
<path d="M2.64355 26.6921L8.98644 20.085L15.3293 26.6921L21.6722 20.085L28.0151 26.6921L34.358 20.085L40.7009 26.6921L47.0437 20.085L53.3866 26.6921L59.4652 20.085" stroke="white" stroke-width="2"/>
</g>
</svg>
