<svg width="122" height="122" viewBox="0 0 122 122" fill="none" xmlns="http://www.w3.org/2000/svg">
<path d="M61 121C94.1371 121 121 94.1371 121 61C121 27.8629 94.1371 1 61 1C27.8629 1 1 27.8629 1 61C1 94.1371 27.8629 121 61 121Z" fill="#3B3B48" stroke="white" stroke-width="2" stroke-miterlimit="10"/>
<path d="M61 96.1602C80.8823 96.1602 97 80.0424 97 60.1602C97 40.2779 80.8823 24.1602 61 24.1602C41.1178 24.1602 25 40.2779 25 60.1602C25 80.0424 41.1178 96.1602 61 96.1602Z" fill="#3B3B48" stroke="white" stroke-width="2" stroke-miterlimit="10"/>
<path d="M67.6715 88.7277C83.4492 85.0446 93.2537 69.2685 89.5705 53.4909C85.8873 37.7132 70.1112 27.9087 54.3336 31.5919C38.5559 35.2751 28.7514 51.0512 32.4346 66.8288C36.1178 82.6065 51.8939 92.4109 67.6715 88.7277Z" fill="#3B3B48" stroke="white" stroke-width="2" stroke-miterlimit="10"/>
<path d="M63.6639 60.2C63.6639 59.6731 63.5077 59.158 63.215 58.7199C62.9222 58.2818 62.5061 57.9404 62.0194 57.7387C61.5326 57.5371 60.997 57.4843 60.4802 57.5871C59.9634 57.6899 59.4888 57.9436 59.1162 58.3162C58.7437 58.6888 58.4899 59.1635 58.3871 59.6802C58.2843 60.197 58.3371 60.7326 58.5387 61.2194C58.7403 61.7062 59.0818 62.1223 59.5199 62.415C59.9579 62.7077 60.473 62.8639 60.9999 62.8639C61.7065 62.8639 62.384 62.5833 62.8836 62.0837C63.3832 61.5841 63.6639 60.9065 63.6639 60.2Z" fill="#3B3B48" stroke="white" stroke-width="2" stroke-miterlimit="10"/>
<path d="M61 35.7207V42.3847" stroke="white" stroke-width="2" stroke-miterlimit="10"/>
<path d="M61 18.5203V23.6083" stroke="white" stroke-width="2" stroke-miterlimit="10"/>
<path d="M61 77.9355V84.6076" stroke="white" stroke-width="2" stroke-miterlimit="10"/>
<path d="M85.4485 60.1602H78.7766" stroke="white" stroke-width="2" stroke-miterlimit="10"/>
<path d="M43.2236 60.1602H36.5516" stroke="white" stroke-width="2" stroke-miterlimit="10"/>
<path d="M48.5518 47.2715L59.4478 57.9355" stroke="white" stroke-width="2" stroke-miterlimit="10"/>
<path d="M67.7766 18.2155C67.7766 16.4183 67.0626 14.6948 65.7919 13.4241C64.5211 12.1534 62.7977 11.4395 61.0006 11.4395C59.2035 11.4395 57.48 12.1534 56.2093 13.4241C54.9385 14.6948 54.2246 16.4183 54.2246 18.2155H67.7766Z" fill="#3B3B48" stroke="white" stroke-width="2" stroke-miterlimit="10"/>
</svg>
