<svg width="140" height="140" viewBox="0 0 140 140" fill="none" xmlns="http://www.w3.org/2000/svg">
<path d="M70 140C108.66 140 140 108.66 140 70C140 31.3401 108.66 0 70 0C31.3401 0 0 31.3401 0 70C0 108.66 31.3401 140 70 140Z" fill="#3B3B48"/>
<path d="M70.0089 129.248C102.739 129.248 129.272 102.715 129.272 69.9855C129.272 37.2555 102.739 10.7227 70.0089 10.7227C37.279 10.7227 10.7461 37.2555 10.7461 69.9855C10.7461 102.715 37.279 129.248 70.0089 129.248Z" fill="#3B3B48" stroke="white" stroke-width="2" stroke-miterlimit="10"/>
<path d="M69.3216 48.7281C76.2383 48.7281 77.0531 48.7282 79.7872 48.8911C81.4324 48.9007 83.0629 49.2011 84.6036 49.7783C85.7248 50.2065 86.7431 50.8665 87.5918 51.7151C88.4404 52.5638 89.1004 53.5821 89.5286 54.7033C90.0935 56.241 90.3935 57.8635 90.4158 59.5015C90.5425 62.2356 90.5787 63.1229 90.5787 69.9853C90.5787 76.8476 90.5788 77.7168 90.4158 80.4509C90.3956 82.095 90.0955 83.7238 89.5286 85.2672C89.1004 86.3885 88.4404 87.4067 87.5918 88.2554C86.7431 89.1041 85.7248 89.7641 84.6036 90.1922C83.0601 90.7592 81.4314 91.0592 79.7872 91.0794C77.0531 91.2062 76.1659 91.2242 69.3216 91.2242C62.4774 91.2242 61.572 91.2243 58.856 91.0794C57.2119 91.0592 55.5831 90.7592 54.0397 90.1922C52.9184 89.7641 51.9002 89.1041 51.0515 88.2554C50.2028 87.4067 49.5428 86.3885 49.1147 85.2672C48.5477 83.7238 48.2477 82.095 48.2275 80.4509C48.1007 77.7168 48.0645 76.8295 48.0645 69.9853C48.0645 63.141 48.0645 62.2356 48.2275 59.5015C48.2498 57.8635 48.5498 56.241 49.1147 54.7033C49.5428 53.5821 50.2028 52.5638 51.0515 51.7151C51.9002 50.8665 52.9184 50.2065 54.0397 49.7783C55.5803 49.2011 57.2109 48.9007 58.856 48.8911C61.572 48.7644 62.4774 48.7281 69.3216 48.7281ZM69.3216 44.0566C62.2782 44.0566 61.391 44.0566 58.6388 44.2196C56.4843 44.2587 54.3527 44.6691 52.3377 45.4328C50.6198 46.0997 49.0597 47.1172 47.7566 48.4202C46.4535 49.7233 45.4361 51.2834 44.7691 53.0013C44.0055 55.0163 43.5951 57.1479 43.556 59.3024C43.4292 62.0546 43.4111 62.9237 43.4111 69.9853C43.4111 77.0468 43.4111 77.8978 43.556 80.6681C43.5968 82.8166 44.0072 84.9419 44.7691 86.9511C45.4321 88.6735 46.4478 90.2381 47.7513 91.5447C49.0547 92.8512 50.6169 93.8707 52.3377 94.5378C54.3551 95.2929 56.4852 95.703 58.6388 95.7509C61.391 95.8776 62.2601 95.8958 69.3216 95.8958C76.3832 95.8958 77.2342 95.8957 80.0045 95.7509C82.1581 95.703 84.2882 95.2929 86.3056 94.5378C88.0264 93.8707 89.5886 92.8512 90.892 91.5447C92.1954 90.2381 93.2112 88.6735 93.8741 86.9511C94.6361 84.9419 95.0465 82.8166 95.0873 80.6681C95.214 77.8978 95.2321 77.0468 95.2321 69.9853C95.2321 62.9237 95.2321 62.0546 95.0873 59.3024C95.0482 57.1479 94.6378 55.0163 93.8741 53.0013C93.2072 51.2834 92.1897 49.7233 90.8867 48.4202C89.5836 47.1172 88.0235 46.0997 86.3056 45.4328C84.2906 44.6691 82.159 44.2587 80.0045 44.2196C77.2342 44.0928 76.3832 44.0566 69.3216 44.0566Z" fill="white"/>
<path d="M69.3211 56.6777C66.689 56.6777 64.1159 57.4583 61.9274 58.9206C59.7389 60.3829 58.0331 62.4614 57.0258 64.8932C56.0185 67.3249 55.755 70.0008 56.2685 72.5824C56.782 75.1639 58.0495 77.5353 59.9107 79.3965C61.7719 81.2577 64.1432 82.5252 66.7248 83.0387C69.3063 83.5522 71.9822 83.2886 74.414 82.2813C76.8458 81.2741 78.9242 79.5683 80.3866 77.3798C81.8489 75.1912 82.6294 72.6182 82.6294 69.9861C82.6294 66.4565 81.2273 63.0715 78.7315 60.5757C76.2357 58.0799 72.8507 56.6777 69.3211 56.6777ZM69.3211 78.6229C67.6129 78.6229 65.9431 78.1163 64.5227 77.1673C63.1024 76.2183 61.9954 74.8694 61.3417 73.2912C60.688 71.713 60.517 69.9765 60.8502 68.3011C61.1835 66.6257 62.0061 65.0868 63.2139 63.8789C64.4218 62.671 65.9608 61.8485 67.6361 61.5152C69.3115 61.1819 71.0481 61.3529 72.6263 62.0067C74.2045 62.6604 75.5533 63.7674 76.5024 65.1877C77.4514 66.608 77.9579 68.2779 77.9579 69.9861C77.9579 72.2767 77.048 74.4735 75.4283 76.0932C73.8085 77.7129 71.6117 78.6229 69.3211 78.6229Z" fill="white"/>
<path d="M86.2687 56.1525C86.2687 56.7684 86.0861 57.3706 85.7438 57.8827C85.4016 58.3949 84.9152 58.794 84.3462 59.0298C83.7771 59.2655 83.1509 59.3271 82.5468 59.207C81.9427 59.0868 81.3878 58.7902 80.9522 58.3546C80.5167 57.9191 80.22 57.3642 80.0999 56.7601C79.9797 56.156 80.0414 55.5298 80.2771 54.9607C80.5128 54.3916 80.912 53.9052 81.4241 53.563C81.9363 53.2208 82.5384 53.0381 83.1544 53.0381C83.564 53.0357 83.9701 53.1147 84.349 53.2703C84.7279 53.426 85.0722 53.6553 85.3619 53.945C85.6516 54.2346 85.8809 54.5789 86.0365 54.9578C86.1922 55.3368 86.2711 55.7428 86.2687 56.1525Z" fill="white"/>
</svg>
