<svg width="295" height="140" viewBox="0 0 295 140" fill="none" xmlns="http://www.w3.org/2000/svg">
<g clip-path="url(#clip0_0_318)">
<path d="M33.6346 105.062C30.8824 105.062 28.8005 104.415 27.389 103.122C25.935 101.769 25.0655 99.9032 24.965 97.92H26.6636C26.7764 99.494 27.4775 100.968 28.6275 102.048C29.7481 103.071 31.4171 103.58 33.6346 103.576C35.8522 103.572 37.4427 103.128 38.4059 102.243C38.906 101.778 39.2982 101.209 39.555 100.576C39.8117 99.9438 39.9268 99.2625 39.8922 98.5805C39.9194 98.0789 39.8369 97.5774 39.6505 97.1109C39.4641 96.6444 39.1783 96.2241 38.8129 95.8794C38.0159 95.1854 37.0984 94.6437 36.1058 94.2811C34.9627 93.8485 33.7948 93.4842 32.6084 93.19C31.4052 92.8957 30.2323 92.489 29.1052 91.9751C28.0724 91.517 27.1494 90.8433 26.3982 89.9994C25.6331 89.045 25.2486 87.8411 25.3189 86.62C25.3099 85.7613 25.4848 84.9106 25.832 84.1252C26.176 83.3588 26.6904 82.6811 27.3359 82.1436C28.0599 81.5556 28.8883 81.1094 29.7776 80.8284C30.853 80.4888 31.9763 80.3255 33.1039 80.3448C35.7186 80.3448 37.71 80.9621 39.0783 82.1967C40.4771 83.4749 41.3233 85.2475 41.4374 87.1389H39.7093C39.6014 85.6435 38.9313 84.2444 37.8338 83.2229C36.7722 82.2714 35.1995 81.7976 33.1156 81.8015C31.0318 81.8054 29.4984 82.2439 28.5155 83.1167C28.0243 83.5546 27.6362 84.0958 27.3793 84.7016C27.1223 85.3073 27.0027 85.9625 27.0292 86.62C26.9873 87.4028 27.1937 88.1789 27.619 88.8375C28.052 89.4351 28.6145 89.927 29.2645 90.2765C30.0116 90.6844 30.8032 91.005 31.6236 91.232C32.4964 91.4875 33.3928 91.7412 34.3129 91.9928C35.227 92.2523 36.1235 92.5295 36.9964 92.8243C37.8352 93.1026 38.6296 93.4998 39.3555 94.0039C40.0308 94.4835 40.5925 95.1057 41.0009 95.8263C41.4318 96.6781 41.635 97.6269 41.5907 98.5805C41.6006 99.4776 41.4323 100.368 41.0953 101.199C40.7688 101.994 40.2525 102.697 39.5914 103.246C38.8555 103.847 38.0074 104.296 37.0966 104.567C35.9745 104.907 34.8071 105.074 33.6346 105.062Z" fill="white"/>
<path d="M129.296 80.5806H130.923V94.859L143.869 80.5747H145.921L136.267 91.3203L146.629 104.885H144.506L135.069 92.5412L130.894 97.1532V104.885H129.266L129.296 80.5806Z" fill="white"/>
<path d="M168.132 101.736C167.26 102.802 166.152 103.65 164.894 104.213C163.595 104.787 162.187 105.077 160.766 105.062C159.762 105.076 158.764 104.912 157.817 104.578C156.979 104.28 156.204 103.825 155.535 103.24C154.899 102.678 154.392 101.986 154.048 101.211C153.687 100.392 153.506 99.5049 153.518 98.6099C153.514 97.998 153.585 97.388 153.73 96.7935C153.885 96.1966 154.136 95.6289 154.473 95.1126C154.872 94.5035 155.347 93.9485 155.888 93.4612C156.591 92.8227 157.336 92.2316 158.118 91.6919C157.493 91.0652 156.903 90.4057 156.348 89.7162C155.939 89.2144 155.578 88.6753 155.269 88.1061C155.028 87.6588 154.85 87.1806 154.738 86.6848C154.642 86.2112 154.595 85.729 154.597 85.2457C154.588 84.5747 154.714 83.9088 154.968 83.2877C155.216 82.6985 155.591 82.171 156.065 81.7425C156.573 81.2928 157.161 80.9445 157.799 80.7163C158.534 80.4654 159.306 80.3437 160.082 80.3565C161.502 80.2821 162.893 80.7742 163.951 81.7248C164.426 82.1799 164.799 82.7306 165.046 83.3405C165.293 83.9505 165.408 84.6058 165.384 85.2634C165.383 85.7543 165.323 86.2433 165.207 86.7201C165.061 87.2646 164.822 87.7795 164.499 88.2418C164.07 88.8645 163.571 89.4363 163.013 89.9462C162.225 90.6653 161.385 91.3257 160.5 91.9219L167.861 99.3412C168.319 98.4872 168.659 97.5744 168.869 96.6283C169.114 95.5667 169.233 94.4799 169.223 93.3905H170.851C170.865 94.7112 170.704 96.0279 170.373 97.3066C170.078 98.4311 169.619 99.5061 169.011 100.497L173.322 104.832H171.27L168.132 101.736ZM155.157 98.6099C155.149 99.2767 155.284 99.9374 155.553 100.548C155.821 101.158 156.217 101.704 156.714 102.149C157.229 102.613 157.83 102.971 158.483 103.204C159.215 103.468 159.988 103.598 160.766 103.588C161.958 103.594 163.136 103.328 164.21 102.809C165.292 102.282 166.241 101.518 166.988 100.574L159.173 92.7712C158.462 93.2371 157.787 93.7576 157.156 94.3282C156.695 94.7509 156.28 95.2215 155.918 95.7318C155.636 96.1546 155.436 96.6268 155.328 97.1237C155.214 97.6109 155.154 98.1094 155.151 98.6099H155.157ZM156.219 85.2634C156.216 85.6775 156.258 86.0907 156.343 86.496C156.442 86.9109 156.603 87.3085 156.82 87.6756C157.107 88.1635 157.439 88.6235 157.811 89.0498C158.236 89.5452 158.778 90.1408 159.439 90.8191C160.243 90.2738 161.014 89.6831 161.751 89.0498C162.242 88.6335 162.681 88.1603 163.06 87.6402C163.33 87.2884 163.531 86.888 163.65 86.4606C163.732 86.0729 163.774 85.6775 163.774 85.2811C163.787 84.8225 163.705 84.3661 163.531 83.9415C163.357 83.5168 163.096 83.1334 162.765 82.8159C162.406 82.4874 161.986 82.233 161.529 82.067C161.071 81.9011 160.585 81.8268 160.099 81.8486C159.066 81.7895 158.05 82.1366 157.268 82.8159C156.929 83.126 156.66 83.5045 156.478 83.9264C156.296 84.3483 156.206 84.804 156.213 85.2634H156.219Z" fill="white"/>
<path d="M180.075 80.5806H187.323C190.697 80.5806 193.307 81.5105 195.155 83.3702C197.003 85.23 197.929 87.9527 197.933 91.5385V93.5497C197.933 97.2731 197.001 100.088 195.138 101.995C193.274 103.902 190.661 104.865 187.3 104.885H180.075V80.5806ZM187.152 103.399C190.101 103.399 192.352 102.595 193.905 100.987C195.458 99.3786 196.244 96.8996 196.264 93.5497V91.5385C196.264 88.3734 195.478 85.9986 193.905 84.4141C192.332 82.8296 190.087 82.0432 187.17 82.055H181.726V103.417L187.152 103.399Z" fill="white"/>
<path d="M206.927 80.5806H221.253V82.0373H208.555V91.6447H219.13V93.0896H208.555V103.387H221.253V104.885H206.927V80.5806Z" fill="white"/>
<path d="M236.988 80.5806H239.111L248.306 104.885H246.536L243.77 97.4362H232.276L229.492 104.885H227.793L236.988 80.5806ZM243.216 95.9795L238.085 82.173H238.014L232.818 95.9795H243.216Z" fill="white"/>
<path d="M256.085 80.5806H257.713V103.399H269.72V104.885H256.102L256.085 80.5806Z" fill="white"/>
<path d="M66.8388 93.1427C67.3637 92.5117 67.9004 91.8865 68.4666 91.2555V80.5806H66.8388V91.6447H52.0591V80.5806H50.4314V104.885H52.0591V93.0896H66.8388V93.1427Z" fill="white"/>
<path d="M119.181 91.7449C120.058 90.5265 120.506 89.0518 120.455 87.5517C120.504 86.6025 120.344 85.6541 119.987 84.7736C119.629 83.8931 119.082 83.1019 118.385 82.456C117.009 81.2057 114.929 80.5806 112.145 80.5806H110.865C109.833 81.0642 108.795 81.5537 107.793 82.0373H111.968C114.327 82.0373 116.049 82.5229 117.135 83.494C118.171 84.5946 118.747 86.0491 118.747 87.5605C118.747 89.072 118.171 90.5264 117.135 91.627C116.061 92.5824 114.333 93.0661 111.95 93.0661H106.153V82.8276L104.525 83.6356V104.867H106.153V94.5228H112.906C113.167 94.5226 113.428 94.4989 113.684 94.452L119.234 104.856H121.145L115.348 94.1394C116.861 93.8022 118.214 92.9572 119.181 91.7449Z" fill="white"/>
<path d="M258.332 51.9413C256.934 51.7879 255.235 51.5874 253.879 51.4636L251.52 51.2395L250.464 51.151C250.128 51.1215 249.721 51.0979 249.249 51.0684L244.348 50.7735C241.399 50.6556 238.35 50.4963 235.225 50.4433C232.099 50.3902 228.884 50.2958 225.605 50.3489L220.616 50.3784C218.935 50.3784 217.236 50.4728 215.52 50.5199C200.725 50.9568 185.97 52.2862 171.335 54.5009C154.967 56.9664 138.815 60.691 123.02 65.6417C114.683 68.3796 106.612 71.8738 98.9106 76.0806C98.7867 76.1455 98.6688 76.2163 98.5508 76.2871V76.1986C97.7829 73.968 96.6158 71.8957 95.1066 70.0827C93.5735 68.2368 91.6416 66.7627 89.4565 65.7714C87.2809 64.82 84.9555 64.2571 82.5857 64.1083C80.2684 63.9541 77.9417 64.0252 75.6382 64.3206C66.4849 65.5001 58.0276 68.7851 49.4759 70.8081C47.3788 71.3466 45.2291 71.6552 43.0651 71.7281C42.0364 71.7662 41.009 71.6265 40.0278 71.3153C39.0733 71.0422 38.207 70.5237 37.5154 69.8114C36.1707 68.4136 36.0704 66.2727 36.5363 64.2852C37.0601 62.2728 37.8747 60.3475 38.9544 58.5703C41.1401 54.99 43.7284 51.6716 46.6686 48.6799C49.5486 45.6892 52.6369 42.9063 55.9103 40.3523C62.23 35.315 69.2517 31.228 76.7529 28.2207C80.3779 26.7895 84.1619 25.7994 88.0234 25.2718C89.9111 25.0171 91.8177 24.9322 93.7206 25.0182C95.5925 25.0843 97.4507 25.3653 99.2585 25.8557C101.035 26.3274 102.747 27.0168 104.354 27.9081C105.918 28.8019 107.375 29.8725 108.695 31.0988C109.019 31.4054 109.32 31.7357 109.633 32.0483L110.093 32.526L110.517 33.0332L110.682 33.2337L110.824 33.4048C111.007 33.6289 111.19 33.8353 111.355 34.0476L111.791 34.6374L112.511 35.6459C112.876 36.2357 113.1 36.5836 113.1 36.6249L113.218 36.7901C114.032 37.8929 113.684 37.1498 113.419 36.6367C113.395 36.5836 113.368 36.5324 113.336 36.4834C113.336 36.448 113.106 36.0941 112.747 35.5043L112.045 34.49C111.753 34.0512 111.436 33.6297 111.095 33.2278L110.954 33.0568L110.889 32.9683L110.771 32.8268C110.5 32.4755 110.207 32.1425 109.892 31.8301C107.421 29.1236 104.316 27.0728 100.857 25.8616C97.2543 24.6455 93.4395 24.1857 89.6512 24.511C85.7677 24.8334 81.9408 25.6479 78.2627 26.935C70.802 29.4887 63.7071 33.4696 57.0839 38.2999C53.7425 40.7447 50.5702 43.4126 47.5886 46.2854C44.5274 49.1895 41.7616 52.3899 39.3318 55.8397C38.0982 57.5989 37.0451 59.478 36.1884 61.4484C35.3981 63.4477 34.7493 65.6594 35.2034 67.9772C35.4433 69.1599 36.0649 70.2312 36.9727 71.0263C37.8796 71.7849 38.9399 72.3382 40.0808 72.6482C42.3869 73.238 44.6811 73.0138 46.875 72.6482C51.2747 71.911 55.4916 70.6017 59.7438 69.4103C63.9731 68.1455 68.2644 67.0983 72.6009 66.2727C74.7627 65.8762 76.9507 65.6396 79.1473 65.565C81.3263 65.4765 83.5075 65.6748 85.6348 66.1548C87.7104 66.6242 89.665 67.5222 91.3733 68.7911C93.0453 70.0917 94.4375 71.7166 95.4663 73.5682C96.1071 74.7012 96.6251 75.8993 97.0115 77.1422C89.8143 81.1714 83.1325 86.059 77.1126 91.6978C73.8571 94.8531 70.7844 98.2914 68.4784 102.349C67.8994 103.376 67.4063 104.449 67.0039 105.557C66.5677 106.709 66.3208 107.924 66.2726 109.155C66.1966 110.518 66.5877 111.866 67.3814 112.977C68.2291 114.06 69.4108 114.834 70.7431 115.177C71.9452 115.514 73.1933 115.66 74.4409 115.607C75.6503 115.608 76.857 115.494 78.0444 115.265C80.4093 114.813 82.6793 113.959 84.7561 112.741C88.7745 110.292 92.1382 106.904 94.5581 102.868C96.9983 98.9165 98.6524 94.5309 99.4296 89.9521C100.097 86.2748 100.041 82.5025 99.2644 78.8467C105.524 75.4196 112.029 72.4627 118.727 70.0001C122.661 68.567 126.583 67.24 130.581 66.1725L136.514 64.4916C138.478 63.9313 140.431 63.3534 142.412 62.9169L148.31 61.5015L151.217 60.7997L152.668 60.4458L154.125 60.1509L165.62 57.8449C179.9 55.2728 194.313 53.5007 208.791 52.5369C222.238 51.6287 234.617 51.3987 245.569 51.6759L250.163 51.8056L251.207 51.8528L254.858 51.9767C256.663 52.0651 258.432 52.1654 258.279 52.1477L261.228 52.3364C261.416 52.3246 260.708 52.2185 258.332 51.9413ZM98.0023 86.0124C97.7397 90.3407 96.6338 94.576 94.7467 98.4802C92.9267 102.424 90.2797 105.929 86.9854 108.76C83.7362 111.589 79.6575 113.288 75.361 113.602H73.7686L72.9901 113.555L72.2352 113.454C71.3039 113.321 70.4204 112.958 69.6638 112.399C68.3014 111.349 68.1658 109.326 68.7143 107.398C69.319 105.399 70.2345 103.508 71.4272 101.795C72.6319 100.018 73.9686 98.3343 75.4259 96.758C78.3651 93.5898 81.5758 90.685 85.0214 88.0766C88.4469 85.4596 92.0253 83.0491 95.7376 80.8578C96.3687 80.4803 97.0056 80.1206 97.6425 79.7608C98.0184 81.8221 98.1392 83.9217 98.0023 86.0124Z" fill="white"/>
</g>
<defs>
<clipPath id="clip0_0_318">
<rect width="294.101" height="140" fill="white"/>
</clipPath>
</defs>
</svg>
