<svg width="140" height="140" viewBox="0 0 140 140" fill="none" xmlns="http://www.w3.org/2000/svg">
<path d="M70 140C108.66 140 140 108.66 140 70C140 31.3401 108.66 0 70 0C31.3401 0 0 31.3401 0 70C0 108.66 31.3401 140 70 140Z" fill="#3B3B48"/>
<path d="M70.0003 129.263C102.73 129.263 129.263 102.73 129.263 70.0001C129.263 37.2702 102.73 10.7373 70.0003 10.7373C37.2703 10.7373 10.7375 37.2702 10.7375 70.0001C10.7375 102.73 37.2703 129.263 70.0003 129.263Z" fill="#3B3B48" stroke="white" stroke-width="2" stroke-miterlimit="10"/>
<path d="M94.0639 48.1082C93.7701 47.4846 93.2949 46.9643 92.7004 46.6154C92.1059 46.2665 91.42 46.1052 90.7323 46.1527C89.9593 46.1581 89.1932 46.299 88.469 46.5691C88.1249 46.6959 54.7908 59.4248 41.1203 65.0378C40.6128 65.1997 40.1455 65.4674 39.7491 65.8232C39.3527 66.179 39.0363 66.6149 38.8207 67.102C38.6392 67.7029 38.6759 68.3487 38.9244 68.9252C39.1729 69.5017 39.6172 69.9718 40.1787 70.2525C43.5647 71.7373 50.6443 73.8738 52.8533 74.4532C53.5776 76.8795 56.1306 85.3172 57.3257 88.9385C57.513 89.4216 57.8534 89.8301 58.2948 90.1014C58.7363 90.3728 59.2544 90.4922 59.7701 90.4413H60.0598C60.3769 90.4058 60.6684 90.2504 60.8746 90.0068C61.056 89.807 61.1645 89.5518 61.1824 89.2825L61.8885 79.0523L67.3205 83.1263C71.5755 86.295 76.6454 90.0792 79.4881 92.1796C80.309 92.8366 81.3168 93.2169 82.3671 93.2659C83.2483 93.2062 84.084 92.8526 84.7405 92.2618C85.3971 91.6709 85.8364 90.8769 85.9884 90.0068C88.3422 80.863 91.7825 63.5893 93.8466 53.2685L94.2993 51.0052C94.5557 50.0411 94.4726 49.0182 94.0639 48.1082ZM59.5347 76.5898L58.919 85.6431C57.3619 80.7181 55.0986 73.1496 55.0623 72.9685L81.1177 56.0026C81.8791 55.4549 82.6989 54.9934 83.5621 54.6265C84.4855 54.4274 84.7028 54.7895 84.5398 55.0068C83.3982 56.2149 82.1892 57.3574 80.9185 58.4289L60.1503 75.6483C59.983 75.7483 59.8407 75.885 59.734 76.0481C59.6274 76.2112 59.5592 76.3965 59.5347 76.5898Z" fill="white"/>
</svg>
