<svg width="140" height="140" viewBox="0 0 140 140" fill="none" xmlns="http://www.w3.org/2000/svg">
<path d="M70 140C108.66 140 140 108.66 140 70C140 31.3401 108.66 0 70 0C31.3401 0 0 31.3401 0 70C0 108.66 31.3401 140 70 140Z" fill="#3B3B48"/>
<path d="M70.0003 129.263C102.73 129.263 129.263 102.73 129.263 70.0004C129.263 37.2704 102.73 10.7375 70.0003 10.7375C37.2704 10.7375 10.7375 37.2704 10.7375 70.0004C10.7375 102.73 37.2704 129.263 70.0003 129.263Z" fill="#3B3B48" stroke="#9898A9" stroke-width="2" stroke-miterlimit="10"/>
<path fill-rule="evenodd" clip-rule="evenodd" d="M97.7029 68.6059C97.7677 61.4026 94.9684 54.4686 89.9208 49.3293C84.8732 44.19 77.9907 41.2664 70.7875 41.2015C63.5842 41.1367 56.6503 43.936 51.5109 48.9836C46.3716 54.0313 43.448 60.9138 43.3832 68.117C43.3832 68.4972 43.3832 68.8956 43.3832 69.2939C43.3801 74.21 44.7267 79.0326 47.2761 83.2359L42.3692 97.7212L57.452 92.9411C61.5796 95.2365 66.2345 96.4158 70.9572 96.3627C75.6798 96.3096 80.307 95.0259 84.382 92.6383C88.457 90.2507 91.8389 86.8418 94.194 82.7479C96.5491 78.654 97.796 74.0168 97.8115 69.2939C97.721 69.1128 97.721 68.8412 97.7029 68.6059ZM70.543 91.9996C66.069 92.0104 61.6915 90.7002 57.959 88.2334L49.1592 91.0399L52.02 82.6022C49.1882 78.7425 47.6597 74.081 47.6563 69.2939C47.6529 68.5557 47.6953 67.8179 47.7831 67.0849C48.3659 61.4121 51.0454 56.1612 55.297 52.3607C59.5486 48.5601 65.0658 46.4837 70.7682 46.538C76.4706 46.5924 81.9472 48.7737 86.1256 52.6546C90.3039 56.5356 92.8828 61.8366 93.3573 67.5194C93.3573 68.117 93.3573 68.6964 93.3573 69.3301C93.319 75.362 90.8935 81.1332 86.6113 85.3814C82.3291 89.6297 76.5388 92.0093 70.5068 91.9996H70.543Z" fill="#9898A9"/>
<path fill-rule="evenodd" clip-rule="evenodd" d="M82.9829 74.7448C82.3129 74.4189 79.0356 72.8075 78.42 72.5902C77.8043 72.3729 77.3698 72.2642 76.9171 72.9161C76.4645 73.5679 75.1065 75.0708 74.7987 75.5053C74.4908 75.9399 74.0201 76.0123 73.3501 75.6683C71.3563 74.9132 69.5158 73.8028 67.9182 72.391C66.4559 71.0609 65.2043 69.5163 64.2063 67.81C63.8261 67.1582 64.2063 66.7961 64.496 66.4701C64.7857 66.1442 65.1659 65.6915 65.51 65.3113L65.7454 64.9854C65.9097 64.734 66.0492 64.4671 66.1618 64.1887C66.2654 64.0132 66.3199 63.8131 66.3199 63.6093C66.3199 63.4055 66.2654 63.2055 66.1618 63.0299C65.9989 62.704 64.659 59.4086 64.0977 58.123C63.5364 56.8374 62.9932 57.0185 62.5948 57.0185C62.1965 57.0185 61.78 57.0185 61.3274 57.0185C60.9834 57.0189 60.6436 57.0935 60.3311 57.2372C60.0186 57.381 59.7408 57.5905 59.5167 57.8514C58.7621 58.5568 58.1642 59.413 57.7618 60.3644C57.3594 61.3158 57.1615 62.3411 57.181 63.3739C57.195 64.1343 57.3107 64.8894 57.525 65.6191C58.0474 67.2763 58.8497 68.8317 59.897 70.2182C60.241 70.6527 64.5141 77.5514 71.286 80.213C78.0578 82.8747 78.076 82.0237 79.3072 81.8607C80.2372 81.6866 81.1191 81.3153 81.8937 80.7718C82.6682 80.2284 83.3174 79.5254 83.7976 78.7102C84.2413 77.7231 84.38 76.626 84.196 75.5596C84.033 75.2518 83.6347 75.0707 82.9829 74.7448Z" fill="#9898A9"/>
</svg>
