<svg width="140" height="140" viewBox="0 0 140 140" fill="none" xmlns="http://www.w3.org/2000/svg">
<path d="M70 140C108.66 140 140 108.66 140 70C140 31.3401 108.66 0 70 0C31.3401 0 0 31.3401 0 70C0 108.66 31.3401 140 70 140Z" fill="#3B3B48"/>
<path d="M70.0003 129.263C102.73 129.263 129.263 102.73 129.263 70.0001C129.263 37.2702 102.73 10.7373 70.0003 10.7373C37.2703 10.7373 10.7375 37.2702 10.7375 70.0001C10.7375 102.73 37.2703 129.263 70.0003 129.263Z" fill="#3B3B48" stroke="white" stroke-width="2" stroke-miterlimit="10"/>
<path d="M100.311 54.6814C99.9488 53.339 99.2421 52.1146 98.2606 51.1299C97.2791 50.1452 96.0569 49.4345 94.7156 49.0684C89.7906 47.7286 70.0182 47.7285 70.0182 47.7285C70.0182 47.7285 50.2459 47.7286 45.3209 49.0684C43.9763 49.4278 42.7506 50.1362 41.7681 51.122C40.7855 52.1077 40.081 53.3357 39.726 54.6814C37.9637 64.8175 37.9637 75.1817 39.726 85.3178C40.0833 86.6644 40.7882 87.8934 41.7702 88.8817C42.7521 89.8701 43.9766 90.5829 45.3209 90.9489C50.2459 92.2707 70.0182 92.2707 70.0182 92.2707C70.0182 92.2707 89.7906 92.2707 94.7156 90.9489C96.0566 90.5763 97.2776 89.8613 98.2585 88.874C99.2395 87.8867 99.9467 86.6611 100.311 85.3178C102.073 75.1817 102.073 64.8175 100.311 54.6814ZM63.5542 79.3969V60.5842L80.0674 69.9815L63.5542 79.3969Z" fill="white"/>
</svg>
